<?xml version="1.0" encoding="utf-8"?>
<!-- Generator: Adobe Illustrator 16.0.0, SVG Export Plug-In . SVG Version: 6.00 Build 0)  -->
<!DOCTYPE svg PUBLIC "-//W3C//DTD SVG 1.1//EN" "http://www.w3.org/Graphics/SVG/1.1/DTD/svg11.dtd">
<svg version="1.1" xmlns="http://www.w3.org/2000/svg" xmlns:xlink="http://www.w3.org/1999/xlink" x="0px" y="0px" width="500px"
	 height="500px" viewBox="0 0 500 500" enable-background="new 0 0 500 500" xml:space="preserve">
<g id="BACKGROUND">
	<rect fill="#FFFFFF" width="500" height="500"/>
</g>
<g id="OBJECTS">
	<g>
		<g>
			<g opacity="0.22">
				<path fill="#A2DBF1" d="M268.771,112.855c-39.139,12.496-163.11-49.122-153.408,35.044c1.517,12.515,9.577,30.192,2.77,41.876
					c-4.933,8.75-13.975,13.877-22.708,17.279c-22.814,9.274-31.309,26.682-25.531,51.526
					c15.454,66.945,99.581,51.069,143.745,31.219c31.408-14.771,68.45-17.309,100.973-4.813
					c25.479,10.175,41.362,31.52,71.267,25.267c26.521-5.322,30.522-30.36,22.778-53.668c-4.399-14.42-7.559-20.513,1.168-34.432
					c7.354-13.824,20.297-24.299,21.293-40.494c0.218-17.541-7.843-35.217-23.441-41.86c-12.763-5.436-24.331-3.241-36.956-6.583
					c-28.083-7.893-46.13-51.525-80.968-36.52c-8.687,4.101-13.574,13.549-23.039,16.301"/>
			</g>
			<g opacity="0.3">
				<g>
					<g>
						<path fill="#A2DBF1" d="M254.58,106.844c3.547,0,3.547-5.5,0-5.5S251.033,106.844,254.58,106.844L254.58,106.844z"/>
					</g>
				</g>
				<g>
					<g>
						<path fill="#A2DBF1" d="M91.643,191.407c7.094,0,7.094-11,0-11S84.549,191.407,91.643,191.407L91.643,191.407z"/>
					</g>
				</g>
				<g>
					<g>
						<path fill="#A2DBF1" d="M422.33,235.269c7.094,0,7.094-11,0-11S415.236,235.269,422.33,235.269L422.33,235.269z"/>
					</g>
				</g>
				<g>
					<g>
						<path fill="#A2DBF1" d="M236.018,104.094c7.094,0,7.094-11,0-11S228.924,104.094,236.018,104.094L236.018,104.094z"/>
					</g>
				</g>
				<g>
					<g>
						<path fill="#A2DBF1" d="M433.33,217.807c9.222,0,9.222-14.3,0-14.3S424.108,217.807,433.33,217.807L433.33,217.807z"/>
					</g>
				</g>
				<g>
					<g>
						<path fill="#A2DBF1" d="M73.081,209.557c9.222,0,9.222-14.3,0-14.3S63.859,209.557,73.081,209.557L73.081,209.557z"/>
					</g>
				</g>
				<g>
					<g>
						<path fill="#A2DBF1" d="M378.33,123.619c9.222,0,9.222-14.3,0-14.3S369.108,123.619,378.33,123.619L378.33,123.619z"/>
					</g>
				</g>
				<g>
					<g>
						<path fill="#A2DBF1" d="M251.83,95.157c10.641,0,10.641-16.5,0-16.5C241.19,78.657,241.19,95.157,251.83,95.157L251.83,95.157
							z"/>
					</g>
				</g>
				<g>
					<g>
						<path fill="#A2DBF1" d="M439.243,230.731c5.32,0,5.32-8.25,0-8.25S433.923,230.731,439.243,230.731L439.243,230.731z"/>
					</g>
				</g>
				<g>
					<g>
						<path fill="#A2DBF1" d="M71.155,186.594c5.32,0,5.32-8.25,0-8.25S65.835,186.594,71.155,186.594L71.155,186.594z"/>
					</g>
				</g>
				<g>
					<g>
						<path fill="#A2DBF1" d="M395.518,131.594c5.32,0,5.32-8.25,0-8.25S390.197,131.594,395.518,131.594L395.518,131.594z"/>
					</g>
				</g>
				<g>
					<g>
						<path fill="#A2DBF1" d="M394.143,116.469c3.547,0,3.547-5.5,0-5.5S390.596,116.469,394.143,116.469L394.143,116.469z"/>
					</g>
				</g>
				<g>
					<g>
						<path fill="#A2DBF1" d="M115.568,106.981c7.094,0,7.094-11,0-11S108.475,106.981,115.568,106.981L115.568,106.981z"/>
					</g>
				</g>
				<g>
					<g>
						<path fill="#A2DBF1" d="M428.518,296.595c7.094,0,7.094-11,0-11S421.424,296.595,428.518,296.595L428.518,296.595z"/>
					</g>
				</g>
				<g>
					<g>
						<path fill="#A2DBF1" d="M71.018,301.407c7.094,0,7.094-11,0-11S63.924,301.407,71.018,301.407L71.018,301.407z"/>
					</g>
				</g>
				<g>
					<g>
						<path fill="#A2DBF1" d="M132.068,98.731c3.547,0,3.547-5.5,0-5.5S128.521,98.731,132.068,98.731L132.068,98.731z"/>
					</g>
				</g>
				<g>
					<g>
						<path fill="#A2DBF1" d="M429.205,274.595c3.547,0,3.547-5.5,0-5.5S425.658,274.595,429.205,274.595L429.205,274.595z"/>
					</g>
				</g>
				<g>
					<g>
						<path fill="#A2DBF1" d="M87.518,308.282c3.547,0,3.547-5.5,0-5.5S83.971,308.282,87.518,308.282L87.518,308.282z"/>
					</g>
				</g>
			</g>
		</g>
		<g>
			<g>
				<g>
					<g>
						<g>
							<g>
								<path fill="#222221" d="M166.032,215.68c-3.705,1.309-6.151,1.559-8.049-2.188c-1.462-2.885-2.437-5.865-4.277-8.566
									c-3.988-5.854-7.85-6.247-14.236-5.413c-6.338,0.828-14.984-0.792-15.946-8.121c-0.686-5.224-0.726-10.027-3.013-14.914
									c-1.126-2.408-4.682-0.312-3.562,2.082c2.537,5.422,1.428,11.326,3.285,16.849c1.884,5.604,8.157,7.411,13.431,8.04
									c3.985,0.475,7.474-0.486,11.381-0.481c4.196,0.005,7.061,7.203,8.391,10.362c2.772,6.587,6.7,8.797,13.692,6.327
									C169.619,218.778,168.546,214.792,166.032,215.68L166.032,215.68z"/>
							</g>
						</g>
						<g>
							<g>
								<g>
									<path fill="#222221" d="M122.439,170.911c-1.235,1.618-2.745,2.628-4.542,3.533c-1.901,0.958-0.229,3.804,1.666,2.85
										c2.336-1.177,4.135-2.634,5.726-4.717c0.547-0.717,0.112-1.845-0.592-2.258
										C123.849,169.822,122.984,170.198,122.439,170.911L122.439,170.911z"/>
								</g>
							</g>
							<g>
								<g>
									<path fill="#222221" d="M116.531,166.519c0.009,3.489,0.518,6.959,0.55,10.45c0.019,2.127,3.319,2.129,3.3,0
										c-0.032-3.491-0.541-6.961-0.55-10.45C119.825,164.391,116.525,164.391,116.531,166.519L116.531,166.519z"/>
								</g>
							</g>
							<g>
								<g>
									<path fill="#222221" d="M110.964,169.886c2.208,2.76,4.45,5.514,7.483,7.408c1.811,1.13,3.466-1.726,1.666-2.85
										c-2.769-1.729-4.802-4.375-6.816-6.891C111.968,165.891,109.649,168.242,110.964,169.886L110.964,169.886z"/>
								</g>
							</g>
							<g>
								<g>
									<path fill="#222221" d="M108.214,174.835c3.07,2.903,6.897,3.865,10.955,2.625c2.029-0.62,1.164-3.806-0.877-3.183
										c-2.93,0.896-5.503,0.344-7.745-1.775C109.003,171.041,106.665,173.371,108.214,174.835L108.214,174.835z"/>
								</g>
							</g>
						</g>
					</g>
					<g>
						<g>
							<g>
								<path fill="#222221" d="M334.743,225.918c0.148-5.391,1.95-7.189,7.154-7.613c3.381-0.276,6.811-0.229,10.154-0.852
									c5.104-0.95,5.009-7.99,6.983-11.623c3.016-5.549,11.118-4.959,16.347-6.599c5.761-1.806,7.972-6.683,8.312-12.363
									c0.159-2.658-3.967-2.643-4.125,0c-0.506,8.45-6.703,8.744-13.51,10.145c-6,1.234-10.063,4.523-12.149,10.305
									c-0.653,1.81-0.812,5.583-2.954,6.157c-3.488,0.936-7.503,0.508-11.092,0.897c-6.744,0.73-9.068,5.146-9.245,11.546
									C330.545,228.58,334.67,228.573,334.743,225.918L334.743,225.918z"/>
							</g>
						</g>
						<g>
							<g>
								<g>
									<path fill="#222221" d="M373.989,181.807c1.41,3.362,3.84,5.793,7.203,7.203c0.831,0.348,1.814-0.369,2.029-1.153
										c0.262-0.951-0.323-1.682-1.152-2.03c-2.169-0.909-3.988-2.729-4.898-4.897c-0.348-0.829-1.078-1.415-2.029-1.153
										C374.358,179.993,373.641,180.976,373.989,181.807L373.989,181.807z"/>
								</g>
							</g>
							<g>
								<g>
									<path fill="#222221" d="M378.88,177.519c0,2.75,0,5.5,0,8.25c0,2.128,3.301,2.128,3.301,0c0-2.75,0-5.5,0-8.25
										C382.181,175.391,378.88,175.391,378.88,177.519L378.88,177.519z"/>
								</g>
							</g>
							<g>
								<g>
									<path fill="#222221" d="M384.439,178.18c-1,2.885-2.727,5.056-5.076,6.972c-1.649,1.346,0.7,3.666,2.334,2.333
										c2.797-2.282,4.74-5.015,5.924-8.428C388.32,177.041,385.132,176.183,384.439,178.18L384.439,178.18z"/>
								</g>
							</g>
							<g>
								<g>
									<path fill="#222221" d="M388.456,181.636c-1.438,2.279-3.709,3.735-6.164,4.742c-1.941,0.796-1.093,3.99,0.877,3.183
										c3.288-1.348,6.206-3.198,8.137-6.258C392.444,181.497,389.588,179.842,388.456,181.636L388.456,181.636z"/>
								</g>
							</g>
						</g>
					</g>
				</g>
				<g>
					<g>
						<g>
							<path fill="#B3B3B3" d="M354.408,285.685c0,2.886-21.604,3.724-23.939,3.724H168.792c-2.332,0-23.939-0.838-23.939-3.724
								l19.715-29.552c0-2.886,1.893-5.225,4.225-5.225h161.677c2.335,0,4.226,2.339,4.226,5.225L354.408,285.685z"/>
							<g>
								<g>
									<polygon fill="#3E3E3D" points="216.382,279.102 174.83,279.102 182.101,261.502 219.683,261.502 									"/>
									<polygon fill="#3E3E3D" points="282.879,279.102 324.431,279.102 317.158,261.502 279.578,261.502 									"/>
									<polygon fill="#3E3E3D" points="329.049,279.102 343.681,279.102 331.708,261.502 320.67,261.502 									"/>
									<polygon fill="#3E3E3D" points="170.214,279.102 155.581,279.102 167.555,261.502 178.591,261.502 									"/>
									<polygon fill="#3E3E3D" points="279.224,279.102 220.036,279.102 223.336,261.502 275.924,261.502 									"/>
								</g>
								<g>
									<rect x="159.192" y="264.714" fill="#B3B3B3" width="180.878" height="2.694"/>
									<rect x="157.231" y="271.313" fill="#B3B3B3" width="184.8" height="2.694"/>
								</g>
							</g>
						</g>
						<g>
							<path fill="#3E3E3D" d="M355.515,292.529c0,2.333-0.483,4.224-2.814,4.224H146.562c-2.335,0-2.815-1.891-2.815-4.224v-3.622
								c0-2.333,0.48-4.224,2.815-4.224H352.7c2.331,0,2.814,1.891,2.814,4.224V292.529z"/>
							<path fill="#6F6F6F" d="M288.268,290.819c0,1.215-0.984,2.2-2.199,2.2h-72.875c-1.216,0-2.2-0.985-2.2-2.2l0,0
								c0-1.215,0.984-2.2,2.2-2.2h72.875C287.283,288.619,288.268,289.604,288.268,290.819L288.268,290.819z"/>
						</g>
					</g>
					<g>
						<path fill="#3E3E3D" d="M336.806,252.144c0,2.333-1.891,4.226-4.226,4.226H166.681c-2.334,0-4.226-1.893-4.226-4.226V143.911
							c0-2.333,1.892-4.226,4.226-4.226H332.58c2.335,0,4.226,1.893,4.226,4.226V252.144z"/>
						<g>
							<g>
								<path fill="#FFFFFF" d="M249.631,145.563c2.271,0,2.271-3.521,0-3.521S247.36,145.563,249.631,145.563L249.631,145.563z"/>
							</g>
						</g>
						<g>
							<path fill="#FFFFFF" d="M324.602,245.34c0,2.007-1.627,3.634-3.632,3.634H178.293c-2.006,0-3.635-1.627-3.635-3.634v-93.077
								c0-2.007,1.629-3.634,3.635-3.634H320.97c2.005,0,3.632,1.627,3.632,3.634V245.34z"/>
							<g>
								<g>
									<g>
										
											<line fill="none" stroke="#425973" stroke-width="3.3" stroke-linecap="round" stroke-linejoin="round" stroke-miterlimit="10" x1="227.804" y1="186.356" x2="215.357" y2="198.8"/>
										
											<line fill="none" stroke="#425973" stroke-width="3.3" stroke-linecap="round" stroke-linejoin="round" stroke-miterlimit="10" x1="227.804" y1="198.802" x2="215.358" y2="186.357"/>
									</g>
									<g>
										
											<line fill="none" stroke="#425973" stroke-width="3.3" stroke-linecap="round" stroke-linejoin="round" stroke-miterlimit="10" x1="283.903" y1="186.356" x2="271.457" y2="198.8"/>
										
											<line fill="none" stroke="#425973" stroke-width="3.3" stroke-linecap="round" stroke-linejoin="round" stroke-miterlimit="10" x1="283.903" y1="198.802" x2="271.459" y2="186.357"/>
									</g>
								</g>
								<g>
									<g>
										<path fill="#DD9AB2" d="M278.317,213.819v12.283c0,2.431-1.971,4.4-4.4,4.4h-2.373c-2.43,0-4.4-1.97-4.4-4.4v-12.283"/>
										<g>
											<polygon fill="#D6819F" points="274.66,214.46 272.73,228.76 270.801,214.46 											"/>
										</g>
									</g>
									
										<line fill="none" stroke="#425973" stroke-width="2.75" stroke-linecap="round" stroke-linejoin="round" stroke-miterlimit="10" x1="212.337" y1="213.805" x2="286.924" y2="213.805"/>
								</g>
								<g>
									<g>
										<g>
											<path fill="#E9C2D0" d="M200.131,211.986c7.094,0,7.094-11,0-11S193.037,211.986,200.131,211.986L200.131,211.986z"/>
										</g>
									</g>
									<g>
										<g>
											<path fill="#E9C2D0" d="M299.131,211.986c7.094,0,7.094-11,0-11S292.037,211.986,299.131,211.986L299.131,211.986z"/>
										</g>
									</g>
								</g>
							</g>
						</g>
					</g>
				</g>
			</g>
			<g>
				<g>
					<g>
						<path fill="#DB9022" d="M308.48,125.269c0,12.1,0,24.2,0,36.3c0,3.547,5.5,3.547,5.5,0c0-12.1,0-24.2,0-36.3
							C313.98,121.722,308.48,121.722,308.48,125.269L308.48,125.269z"/>
					</g>
				</g>
				<g>
					<g>
						<path fill="#DB9022" d="M311.23,175.594c5.32,0,5.32-8.25,0-8.25S305.91,175.594,311.23,175.594L311.23,175.594z"/>
					</g>
				</g>
			</g>
		</g>
	</g>
</g>
<g id="DESIGNED_BY_FREEPIK">
</g>
</svg>
