<?xml version="1.0" encoding="utf-8"?>
<!-- Generator: Adobe Illustrator 16.0.0, SVG Export Plug-In . SVG Version: 6.00 Build 0)  -->
<!DOCTYPE svg PUBLIC "-//W3C//DTD SVG 1.1//EN" "http://www.w3.org/Graphics/SVG/1.1/DTD/svg11.dtd">
<svg version="1.1" id="Layer_1" xmlns="http://www.w3.org/2000/svg" xmlns:xlink="http://www.w3.org/1999/xlink" x="0px" y="0px"
	 width="612px" height="792px" viewBox="0 0 612 792" enable-background="new 0 0 612 792" xml:space="preserve">
<g>
	<rect x="328.617" y="380.989" fill="#86983A" width="14.766" height="14.766"/>
	<rect x="328.617" y="364.346" fill="#D7DE27" width="14.766" height="14.766"/>
	<rect x="311.666" y="380.76" fill="#B9D657" width="14.764" height="14.767"/>
	<rect x="328.617" y="397.047" fill="#D7DE27" width="14.766" height="14.764"/>
	<rect x="345.057" y="364.237" fill="#A0AB39" width="14.766" height="14.766"/>
	<rect x="361.971" y="380.989" fill="#D7DE27" width="14.766" height="14.766"/>
	<rect x="361.971" y="364.346" fill="#B9D657" width="14.766" height="14.766"/>
	<rect x="311.703" y="348.145" fill="#86983A" width="14.766" height="14.766"/>
	<rect x="328.617" y="348.253" fill="#E0E452" width="14.766" height="14.766"/>
	<rect x="345.057" y="396.937" fill="#D7DE27" width="14.766" height="14.767"/>
	<rect x="361.971" y="413.689" fill="#92C740" width="14.766" height="14.766"/>
	<rect x="361.971" y="397.047" fill="#C0CA30" width="14.766" height="14.764"/>
	<rect x="345.018" y="413.463" fill="#CACA31" width="14.766" height="14.766"/>
	<rect x="328.617" y="430.365" fill="#CACA31" width="14.766" height="14.766"/>
	<rect x="311.703" y="446.315" fill="#EBE94F" width="14.766" height="14.766"/>
	<rect x="328.617" y="463.065" fill="#92C740" width="14.766" height="14.767"/>
	<rect x="361.971" y="430.365" fill="#CACA31" width="14.766" height="14.766"/>
	<rect x="345.018" y="430.14" fill="#B9D657" width="14.766" height="14.765"/>
	<rect x="345.057" y="446.315" fill="#D7DE27" width="14.766" height="14.766"/>
	<rect x="361.971" y="446.424" fill="#A0AB39" width="14.766" height="14.766"/>
	<rect x="378.627" y="380.989" fill="#D7DE27" width="14.766" height="14.766"/>
	<rect x="378.627" y="413.689" fill="#9EB93B" width="14.766" height="14.766"/>
	<rect x="378.627" y="397.047" fill="#B9D657" width="14.766" height="14.764"/>
	<rect x="378.627" y="430.365" fill="#86983A" width="14.766" height="14.766"/>
	<rect x="345.018" y="462.841" fill="#B9D657" width="14.766" height="14.765"/>
	<rect x="361.732" y="462.841" fill="#D7DE27" width="14.766" height="14.765"/>
	<rect x="328.617" y="479.725" fill="#D7DE27" width="14.766" height="14.766"/>
	<rect x="311.666" y="479.498" fill="#8EA43B" width="14.764" height="14.766"/>
	<rect x="345.018" y="479.498" fill="#CACA31" width="14.766" height="14.766"/>
	<path fill="#D7DE27" d="M305.396,324.943c0,0-19.301-26.802-56.716-20.169C255.683,323.988,285.379,337.739,305.396,324.943z"/>
	<g>
		<g>
			<path fill="#D7DE27" d="M277.853,345.787c-8.064,2.366-16.126,4.736-24.167,7.18c-5.711,1.736-12.597,2.825-17.681,6.064
				c-0.194,0.124-0.361,0.47-0.025,0.548c6.232,1.446,13.448,0.057,19.73-0.605c4.786-0.504,9.527-1.339,14.314-1.856
				c3.697-0.399,7.84-0.537,11.314-1.936c-1.118,0.45-4.059,0.887-5.51,1.417c-2.224,0.812-4.466,1.574-6.704,2.346
				c-4.558,1.572-9.104,3.17-13.687,4.67c-7.027,2.3-16.112,3.895-21.776,8.959c-0.159,0.143-0.388,0.459-0.025,0.548
				c3.822,0.929,7.894-0.486,11.696-0.968c7.597-0.963,15.127-2.321,22.713-3.356c3.633-0.496,7.295-0.788,10.922-1.27
				c1.496-0.199,2.591-0.604,3.992-1.013c-1.249,0.364-2.495,0.762-3.73,1.171c-7.749,2.565-15.337,5.59-23.124,8.042
				c-7.323,2.307-14.616,4.881-21.932,7.255c-2.653,0.861-5.446,1.602-7.537,3.534c-2.497,2.307,2.863,3.005,3.967,3.102
				c2.712,0.237,5.947-0.661,8.7-0.718c3.963-0.083,7.926-0.629,11.839-1.217c7.734-1.164,15.434-2.695,23.146-4.011
				c2.985-0.509,5.929-0.955,8.841-1.787c1.607-0.459,3.194-0.81,4.851-1.092c1.61-0.273,4.637-1.066-0.094,0.883
				c-6.558,2.702-14.062,4.09-20.922,5.849c-4.49,1.151-9.013,2.125-13.536,3.125c-7.214,1.595-14.503,3.515-21.316,6.405
				c-1.268,0.538-10.219,5.54-4.567,6.604c3.163,0.595,6.452-0.028,9.543-0.758c7.529-1.777,15.168-3.15,22.752-4.681
				c6.856-1.383,13.661-2.949,20.47-4.544c3.537-0.828,7.128-1.463,10.631-2.418c1.932-0.527,3.895-0.93,5.863-1.296
				c3.743-0.698-0.099-0.484-1.521-0.123c-14.487,3.674-28.948,7.495-43.407,11.279c-5.901,1.545-12.335,2.944-17.888,5.531
				c-2.778,1.294-5.458,2.71-8.283,3.906c-1.009,0.428-3.234,1.423-3.547,2.67c-1.259,5.01,17.889,1.316,19.006,1.116
				c14.322-2.563,27.723-8.032,41.678-11.932c0.581-0.153,1.162-0.308,1.742-0.462c1.62,0.207,2.12-0.127,1.501-0.999
				c-1.446,0.563-2.861,1.216-4.292,1.816c-3.367,1.414-6.88,2.526-10.328,3.727c-7.853,2.734-15.644,5.627-23.442,8.514
				c-5.103,1.889-10.295,3.616-15.326,5.691c-1.538,0.634-6.341,2.516-6.04,4.822c1.014,7.771,56.171-14.015,61.312-15.996
				c3.388-1.306,7.13-1.95,10.628-2.929c1.658-0.464,2.828-0.92,4.573-1.476c0.652,0.138,1.303,0.275,1.955,0.413
				c-0.854,0.431-1.73,0.813-2.625,1.148c-6.929,2.754-14.047,4.944-21.168,7.139c-7.236,2.229-14.363,4.853-21.563,7.206
				c-6.933,2.267-14.051,4.239-20.795,7.02c-2.936,1.211-8.538,2.673-9.82,6.003c-0.709,1.841,5.118,1.9,5.868,1.851
				c13.803-0.918,27.075-5.247,40.056-9.797c6.813-2.388,13.592-4.938,20.313-7.574c2.957-1.159,6.001-2.095,8.92-3.337
				c0.551-0.234,2.321-1.894,2.651-1.983c-1.629,0.445-3.172,1.036-4.752,1.638c-13.946,5.303-28.344,9.777-42.488,14.585
				c-4.357,1.481-8.712,2.965-13.044,4.521c-2.283,0.82-4.54,1.539-6.78,2.466c-1.337,0.553-3.039,1.957-4.44,2.213
				c-1.483,0.272-6.711,2.322-3.998,4.315c2.562,1.881,9.088-0.182,11.824-0.557c8.378-1.151,16.824-3.559,24.776-6.377
				c8.137-2.884,16.737-5.268,24.555-8.896c1.429-0.688,2.875-1.338,4.338-1.95c1.529-0.693,3.136-1.127,4.821-1.301
				c-1.096,0.487-2.217,0.899-3.307,1.404c-4.875,2.259-10.178,3.66-15.288,5.291c-8.327,2.656-16.56,5.567-24.826,8.401
				c-3.973,1.362-7.594,2.845-11.246,4.924c-1.487,0.847-3.091,1.5-3.853,3.093c-0.029,0.087-0.009,0.161,0.059,0.222
				c3.966,2.586,11.651,0.148,15.728-0.692c9.132-1.882,17.971-4.038,26.797-7.05c4.404-1.503,8.742-3.208,13.094-4.854
				c1.646-0.695,3.351-1.205,5.116-1.53c-1.544,0.741-3.096,1.465-4.656,2.172c-2.21,1.009-4.45,1.947-6.698,2.867
				c-9.766,3.994-20.294,7.034-30.506,9.688c-3.897,1.012-7.515,2.998-11.389,4.051c-1.133,0.309-3.564,0.807-4.185,1.949
				c-1.777,3.271,4.255,3.649,6.26,3.193c4.452-1.013,9.383-0.959,13.921-1.57c5.583-0.752,11.139-1.621,16.666-2.71
				c10.429-2.054,20.813-4.06,31.279-5.92c0.579-0.103,1.895-0.935,0.587-0.973c-6.505-0.193-13.059,1.458-19.383,2.775
				c-7.146,1.489-14.344,2.772-21.444,4.473c-1.395,0.334-22.559,5.519-19.015,9.351c3.698,4,13.801,1.669,18.425,1.07
				c12.125-1.57,24.089-4.299,36.143-6.317c0.894-0.149,1.783-1.084,0.33-0.949c-12.243,1.138-24.35,4.869-36.462,6.969
				c-1.939,0.337-15.411,4.521-8.949,7.521c4.687,2.176,11.322,1.051,16.321,0.992c6.229-0.072,13.106-1.127,19.227-2.299
				c1.505-0.288,2.992-0.657,4.498-0.945c-0.015-0.233-0.03-0.467-0.044-0.7c-1.619,0.38-3.244,0.731-4.876,1.054
				c-4.024,0.821-8.084,1.474-12.134,2.149c-5.93,0.99-12.413,1.902-18.135,3.682c-2.44,0.759-5.92,1.062-7.904,2.863
				c-5.402,4.908,9.252,5.297,11.224,5.271c4.868-0.064,9.774-0.06,14.627-0.439c1.597-0.125,3.534,0.061,5.089,0.137
				c-0.045,0.529-0.09,1.059-0.136,1.588c-1.067,0.248-2.145,0.433-3.233,0.554c-1.465,0.194-2.921,0.328-4.375,0.594
				c-3.646,0.666-7.261,1.568-10.823,2.586c-1.888,0.54-4.983,1.099-6.265,2.767c-0.085,0.11-0.135,0.237-0.018,0.349
				c1.396,1.316,4.094,0.56,5.745,0.275c3.753-0.646,6.803-1.107,10.609-0.743c2.072,0.198,4.158,0.43,6.19,0.891
				c2.315,0.525,2.583,3.654,4.356,4.109c2.338,0.602,4.243-2.164,6.43-1.741c0.542,0.104,2.4-0.765,1.294-0.979
				c-1.695-0.327-3.332,0.548-4.832,1.236c-1.676,0.769-4.183-3.202-6.413-3.708c-5.076-1.151-10.188-1.472-15.254-0.423
				c-1.515,0.313-3.027,0.625-4.571,0.757c-2.885,0.245,2.507-1.823,2.952-1.957c3.367-1.013,6.82-1.799,10.27-2.47
				c3.723-0.725,9.816-0.062,12.076-3.749c0.102-0.167,0.131-0.355-0.113-0.42c-6.024-1.608-12.824-0.258-18.965-0.276
				c-3.77-0.012-12.543,1.601-14.785-2.219c-1.697-2.893,16.177-5.795,18.102-6.229c8.548-1.932,17.254-3.012,25.778-5.086
				c0.904-0.22,1.26-1.058,0.053-0.891c-10.641,1.472-21.119,3.604-31.919,3.542c-2.08-0.012-8.954,0.405-9.736-2.313
				c-1.081-3.756,18.732-6.443,21.19-6.918c6.6-1.274,13.149-2.711,19.792-3.72c1.003-0.152,1.927-1.294,2.376-1.369
				c-1.769,0.297-3.534,0.615-5.299,0.931c-4.188,0.75-8.368,1.546-12.552,2.32c-8.504,1.575-17.171,3.343-25.847,3.553
				c-1.994,0.048-4.023-0.047-5.943-0.622c-2.921-0.876-1.735-3.506,1.07-4.021c1.972-0.362,3.947-1.475,5.882-2.121
				c5.178-1.729,10.335-3.086,15.685-4.179c6.962-1.422,13.925-2.847,20.891-4.248c3.442-0.692,7.031-1.192,10.54-1.353
				c0.084-0.206,0.169-0.412,0.253-0.619c-1.218,0.211-2.437,0.415-3.657,0.612c-2.564,0.422-5.136,0.805-7.707,1.194
				c-7.259,1.098-14.408,3.098-21.624,4.473c-8.784,1.674-17.757,2.811-26.667,3.535c-1.691,0.138-4.381,0.552-5.413-1.285
				c-0.485-0.863,7.662-3.75,8.415-4.041c7.443-2.881,15.355-4.831,22.982-7.196c9.393-2.913,18.364-6.423,27.225-10.704
				c0.613-0.296,0.428-0.723-0.193-0.719c-4.042,0.024-7.31,1.608-11.108,2.844c-5.785,1.882-11.398,4.296-17.211,6.144
				c-5.725,1.82-11.613,2.958-17.479,4.226c-3.393,0.733-6.834,1.572-10.314,1.709c-2.18,0.087-5.106-0.853-2.232-2.62
				c4.978-3.062,10.592-4.63,16.067-6.536c6.313-2.199,12.63-4.364,18.999-6.398c5.132-1.639,10.263-3.276,15.327-5.12
				c2.125-0.773,4.935-1.847,6.63-3.466c0.354-0.338-0.3-0.491-0.521-0.471c-4.271,0.392-8.073,1.828-11.953,3.639
				c-7.07,3.3-14.77,5.46-22.103,8.125c-6.739,2.448-13.544,4.387-20.519,6.041c-3.517,0.834-7.093,1.098-10.606,1.833
				c-1.114,0.232-2.252,0.364-3.385,0.459c-1.849,0.155-2.483-2.608-0.627-2.948c1.308-0.24,2.52-1.207,3.682-1.797
				c3.688-1.874,7.936-3.029,11.841-4.408c7.44-2.628,14.95-5.049,22.361-7.762c7.019-2.568,14.165-4.927,21.322-7.072
				c5.125-1.536,10.858-3.116,15.513-5.719c0.998-0.558-0.15-0.777-0.726-0.637c-5.653,1.379-11.181,4.28-16.617,6.412
				c-6.76,2.651-13.598,5.154-20.45,7.556c-7.415,2.599-15.021,4.984-22.667,6.798c-4.483,1.063-9.756,2.248-14.374,2.03
				c-0.855-0.04-1.695-0.083-2.544-0.175c0.439-1.208,0.878-2.417,1.317-3.625c1.283-0.66,2.602-1.236,3.956-1.731
				c14.112-5.498,28.826-10.147,43.296-14.702c6.418-2.02,12.745-4.101,19.079-6.362c2.191-0.782,6.329-1.601,7.513-3.898
				c0.116-0.227-0.245-0.308-0.373-0.335c-4.132-0.854-8.379,1.435-12.285,2.506c-5.818,1.597-11.237,3.435-16.846,5.709
				c-6.583,2.67-13.191,5.12-19.954,7.299c-6.78,2.185-13.906,3.312-20.647,5.48c-1.453,0.467-2.954,0.728-4.459,0.958
				c-0.445,0.068-6.273,0.929-4.418-1.978c0.835-1.308,2.969-2.084,4.294-2.677c4.949-2.212,10.247-3.812,15.326-5.69
				c13.204-4.888,26.48-9.547,39.595-14.655c1.16-0.451,0.385-0.949-0.492-0.744c-11.721,2.733-22.911,7.219-34.487,10.46
				c-6.239,1.746-12.684,2.956-19.105,3.779c-2.811,0.36-17.237,0.488-4.916-4.333c2.979-1.165,5.305-2.99,8.468-4.011
				c2.933-0.945,5.862-1.866,8.822-2.722c6.055-1.748,12.189-3.226,18.309-4.728c11.714-2.875,23.402-6.037,35.038-9.223
				c0.892-0.244,1.269-1.042,0.053-0.891c-15.229,1.898-30.35,6.748-45.398,9.786c-6.417,1.295-12.82,2.673-19.224,4.002
				c-1.428,0.297-8.467,1.526-7.5-1.35c0.555-1.65,3.522-2.694,4.923-3.322c7.152-3.206,15.195-5.172,22.876-6.672
				c6.218-1.214,12.377-2.875,18.484-4.554c6.238-1.715,12.879-2.925,18.562-6.146c0.233-0.132,0.66-0.49,0.215-0.668
				c-1.578-0.635-3.619-0.086-5.217,0.217c-5.726,1.087-11.347,2.522-17.111,3.506c-12.504,2.134-24.766,4.169-37.433,5.005
				c-0.665,0.044-6.361,0.728-4.728-1.938c0.855-1.395,4.174-2.072,5.696-2.583c5.593-1.883,11.287-3.452,16.878-5.342
				c11.298-3.818,22.377-8.361,33.834-11.698c0.573-0.167,1.451-0.922,0.31-0.915c-8.109,0.052-16.404,1.902-24.445,2.928
				c-4.514,0.576-8.997,1.541-13.516,2.143c-1.682,0.224-3.451,0.307-5.107,0.672c-2.417,0.535-10.373,1.887-2.332-1.787
				c7.926-3.621,16.785-5.597,24.989-8.523c4.58-1.634,9.534-3.994,14.334-4.799c2.3-0.385,4.229-1.289,6.136-2.591
				c0.68-0.465-0.296-0.61-0.64-0.575c-2.315,0.241-4.299,1.38-6.608,1.726c-4.258,0.638-8.519,1.215-12.817,1.503
				c-3.045,0.204-6.149,1.032-9.193,1.403c-3.52,0.428-7.16,0.204-10.652,0.686c-0.452,0.063-0.905,0.125-1.357,0.188
				c-1.812,0.944-2.924,0.586-3.334-1.073c1.395-0.455,2.829-0.783,4.226-1.239c3.585-1.169,7.204-2.245,10.812-3.342
				c7.432-2.259,14.888-4.438,22.342-6.625C279.276,346.268,279.063,345.432,277.853,345.787L277.853,345.787z"/>
		</g>
	</g>
	<g>
		<g>
			<path fill="#D2D427" d="M234.025,376.374c-1.309-1.031-2.618-2.062-3.928-3.093c0.704-1.338,1.641-2.485,2.811-3.44
				c1.453-1.399,2.761-2.289,4.458-3.407c3.086-2.033,6.475-3.572,9.891-4.951c7.694-3.106,16.368-5.04,24.549-6.249
				c6.325-0.935,12.381-0.238,18.639,0.558c4.516,0.575,9.286,1.021,13.496,2.856c5.467,2.382-1.404,6.83-3.874,8.253
				c-4.754,2.741-10.031,4.632-15.114,6.662c-11.949,4.77-22.777,11.106-35.412,14.286c-1.198,0.302-20.744,4.391-20.629,2.6
				c0.128-2.01,5.262-3.615,6.867-4.213c4.037-1.506,7.952-3.695,11.925-5.399c7.513-3.223,14.949-5.916,23.039-7.29
				c3.727-0.633,8.905-1.375,12.305,0.69c5.011,3.044-0.811,8.392-3.453,10.571c-5.689,4.692-11.543,8.688-18.542,11.205
				c-7.294,2.622-15,3.958-22.284,6.56c-2.19,0.782-4.363,1.604-6.579,2.316c1.52-0.489,3.46-0.744,5.06-1.264
				c3.606-1.171,7.268-2.171,10.929-3.152c7.809-2.093,15.678-3.846,23.582-5.534c2.426-0.519,4.841-1.081,7.251-1.671
				c2.222-0.544,4.354-0.215,6.531-0.687c5.309-1.152-2.099,4.022-3.184,4.7c-4.472,2.793-9.648,5.31-14.671,6.852
				c-2.718,0.834-5.585,1.624-8.039,3.102c-0.98,0.59,0.138,0.846,0.744,0.704c4.675-1.087,9.149-2.836,13.831-4.002
				c6.213-1.549,12.35-3.313,18.48-5.161c1.15-0.347,2.3-0.691,3.451-1.034c0.582-0.172,1.163-0.345,1.744-0.517
				c1.492,0.182,2.073-0.303,1.743-1.456c-2.719,0.824-5.462,1.572-8.195,2.35c-4.437,1.261-9.567,2.366-13.641,4.498
				c-0.323,1.48,0.207,1.754,1.589,0.822c1.988-0.573,4.037-0.983,6.063-1.389c2.273-0.455,4.498-1.034,6.748-1.601
				c3.191-0.803,6.411-1.457,9.66-1.978c-0.126,0.021-3.781,2.952-4.518,3.517c-4.735,3.627-9.679,6.458-14.171,10.42
				c-3.786,3.339-9.268,6.121-12.077,10.317c-0.479,0.716,1.084,0.45,1.337,0.354c5.571-2.105,11.146-4.165,16.749-6.215
				c0.105-0.038,9.483-3.647,4.758-0.857c-1.396,0.824-2.723,1.521-4.18,2.185c-3.097,1.409-6.111,2.996-9.105,4.61
				c-5.021,2.706-11.835,4.789-15.953,8.831c-2.393,2.351-6.654,3.994-5.703,8.01c0.591,2.492,8.204,1.405,9.624,1.279
				c7.521-0.665,15.283-2.598,22.688-4.077c8.881-1.775,17.649-3.829,26.324-6.342c3.809-1.103,7.596-2.282,11.396-3.416
				c1.526-0.455,3.055-0.9,4.593-1.316c2.032-0.55,0.562-0.866-0.904-0.356c-6.574,2.282-13.254,4.535-19.961,6.398
				c-6.196,1.722-12.215,4.818-18.256,7.044c-7.842,2.89-15.882,5.16-23.744,7.984c-6.583,2.365-12.999,5.176-19.524,7.69
				c-2.647,1.02-10.346,3.506-10.646,6.859c-0.362,4.046,28.129-4.676,30.066-5.287c2.398-0.758,4.793-1.494,7.153-2.362
				c2.304-0.848-4.002,2.871-1.165,1.128c-2.401,1.476-5.055,2.548-7.641,3.654c-6.998,2.994-13.692,6.615-20.563,9.9
				c-1.239,0.593,0.634,0.796,1.245,0.504c6.701-3.204,13.249-6.807,20.097-9.678c2.773-1.162,5.475-2.424,8.107-3.877
				c1.479-0.817,3.386-1.314,4.445-2.705c0.216-0.284-0.042-0.451-0.308-0.506c-3.604-0.734-8.334,1.988-11.613,3.036
				c-3.556,1.137-7.13,2.201-10.736,3.166c-4.235,1.132-8.95,3.023-13.346,3.067c-6.146,0.06,1.264-4.239,2.776-4.961
				c3.359-1.604,6.962-2.778,10.407-4.188c8.041-3.291,16.148-6.13,24.42-8.781c11.325-3.629,22.172-8.553,33.486-12.161
				c5.918-1.888,13.087-3.1,18.531-6.157c0.555-0.312,0.465-0.819-0.21-0.781c-5.177,0.291-10.759,2.932-15.684,4.408
				c-8.273,2.481-16.614,4.49-25.065,6.313c-6.925,1.493-13.928,2.512-20.866,3.926c-3.578,0.729-7.18,1.248-10.84,0.91
				c-6.576-0.607,1.189-6.489,2.457-7.5c9.657-7.708,22.224-10.884,32.356-17.809c0.688-0.471-0.3-0.671-0.656-0.636
				c-8.913,0.89-17.506,5.209-25.789,8.339c0.446,0.118,0.891,0.236,1.337,0.354c2.169-3.241,6.375-5.503,9.373-7.943
				c3.525-2.87,6.683-5.955,10.555-8.4c2.96-1.869,5.679-4.201,8.694-5.952c1.278-0.741,2.535-1.47,3.176-2.835
				c0.194-0.413-0.708-0.387-0.866-0.365c-9.836,1.354-20.19,3.554-29.557,6.854c-1.146,0.404-0.394,1.101,0.511,0.815
				c8.872-2.79,17.637-5.976,26.575-8.684c1.201-0.364,0.979-1.255-0.242-0.905c-6.945,1.987-13.817,4.262-20.807,6.087
				c-3.24,0.846-6.485,1.674-9.738,2.47c-1.723,0.421-3.453,0.816-5.183,1.21c-1.587,0.36-5.579,2.91-2.689,1.733
				c2.778-1.132,5.715-1.881,8.542-2.884c3.186-1.131,5.985-2.943,9.023-4.384c2.628-1.247,9.028-4.16,10.002-7.355
				c0.566-1.858-3.437-0.817-4.003-0.714c-5.51,1.007-11.089,1.776-16.653,2.965c-7.302,1.56-14.548,3.252-21.771,5.148
				c-5.818,1.526-12.774,2.736-17.948,5.966c-0.954,0.596,0.119,0.868,0.744,0.704c6.885-1.804,13.606-4.295,20.478-6.215
				c6.336-1.771,12.507-3.719,18.36-6.753c4.87-2.525,22.993-12.985,15.393-19.805c-2.583-2.318-7.434-1.675-10.454-1.359
				c-6.399,0.67-13.126,2.026-19.091,4.469c-6.369,2.608-12.74,5.238-18.943,8.222c-2.663,1.281-7.767,2.401-9.266,5.287
				c-1.374,2.644,1.956,2.382,3.659,2.19c6.31-0.714,12.731-2.077,18.917-3.521c12.158-2.838,22.474-8.947,33.856-13.622
				c7.229-2.969,17.047-5.396,22.631-11.231c5.492-5.739-4.03-7.475-8.286-8.24c-6.602-1.188-13.501-2.175-20.205-1.968
				c-9.369,0.29-19.085,2.944-27.942,5.848c-6.968,2.285-14.355,5.675-19.531,10.994c-4.514,4.639-1.614,7.913,3.96,6.744
				C235.515,377.017,235.247,376.117,234.025,376.374L234.025,376.374z"/>
		</g>
	</g>
	<g>
		<g>
			<path fill="#B9D657" d="M302.408,467.613c-1.196,0.261-2.078,0.446-3.043,1.287c-3.84,3.347-8.3,6.479-12.838,8.773
				c-3.014,1.523-6.882,2.369-9.472,4.503c-2.547,2.099-4.904,4.359-7.646,6.22c-4.34,2.944-1.537-4.578-1.102-5.605
				c1.186-2.806,2.61-5.286,4.606-7.601c6.618-7.673,14.529-14.453,23.526-19.143c1.948-1.015,3.991-1.829,6.043-2.601
				c2.228-0.838-0.157-0.261-0.807-0.022c-3.273,1.203-6.75,3.757-9.844,5.417c-9.232,4.955-18.751,9.625-28.916,12.282
				c-2.364,0.618-12.096,3.668-7.818-1.526c2.876-3.491,6.284-6.549,9.794-9.384c3.702-2.988,7.217-6.212,10.948-9.178
				c4.077-3.242,8.466-5.36,12.911-7.95c0.88-0.512-0.882-0.394-1.149-0.297c-5.527,2.005-10.208,5.982-15.519,8.509
				c-7.055,3.355-14.646,4.199-22.136,5.901c-1.451-0.787-2.901-1.573-4.351-2.36c0.845-0.621,1.704-1.222,2.578-1.802
				c1.262-0.859,2.572-1.648,3.876-2.441c3.072-1.868,6.573-3.136,9.734-4.874c2.486-1.368,7.966-3.226,9.302-6.028
				c0.102-0.213-0.237-0.241-0.352-0.258c-2.032-0.284-3.526-0.006-5.445,0.697c-3.375,1.238-6.711,2.582-10.152,3.725
				c-1.389,0.462-0.076,0.77,0.72,0.506c2.099-0.697,4.264-1.141,6.358-1.836c0.886-0.295,7.041-1.443,2.716,0.298
				c-4.461,1.797-8.593,4.9-13.066,6.864c-2.995,1.314-6.903,3.781-9.208,6.101c-2.311,2.324,0.181,2.955,2.548,2.938
				c3.483-0.025,7.089-1.234,10.526-1.715c4.812-0.673,9.574-2.406,14.137-4.008c4.306-1.511,8.288-3.88,12.178-6.228
				c3.309-1.997,2.972-2.574-0.465-0.856c-1.66,0.83-3.255,1.817-4.713,2.967c-8.371,6.599-17.378,13.251-24.188,21.519
				c-4.868,5.909,6.273,2.362,8.744,1.801c10.09-2.293,19.158-6.801,28.362-11.39c3.994-1.992,8.054-4.04,11.904-6.298
				c1.386-0.813,3.568-1.156,4.635-2.44c0.427-0.513-0.837-0.326-1.022-0.271c-10.112,3.053-18.917,8.556-26.638,15.715
				c-5.569,5.163-13.541,12.487-13.839,20.867c-0.179,5.048,9.431-2.342,10.096-2.889c1.361-1.119,2.663-2.309,3.997-3.459
				c2.174-1.874,6.233-2.795,8.801-4.063c2.84-1.403,5.174-3.041,7.774-4.836c1.582-1.092,4.583-4.305,6.543-4.733
				C302.852,468.232,303.837,467.301,302.408,467.613L302.408,467.613z"/>
		</g>
	</g>
	<g>
		<g>
			<path fill="#B9D657" d="M234.299,445.63c-8.248-3.498,8.211-13.284,10.903-14.915c6.115-3.704,12.61-6.86,18.899-10.26
				c5.165-2.793,10.771-5.771,15.475-9.295c4.414-3.306,4.23-9.313,2.08-13.827c-1.476-3.098-6.906-4.386-10.076-4.646
				c-0.34-0.028-0.681-0.056-1.022-0.084c-1.729,0.385-2.163-0.141-1.303-1.58c0.772-0.186,1.988-0.798,2.449-0.977
				c1.995-0.771,3.799-1.985,5.5-3.259c3.96-2.966-2.501-5.063-4.827-5.62c-3.327-0.796-6.514-2.12-9.872-2.895
				c-3.604-0.831-7.859-1.672-11.068-3.516c-0.295,0.218-0.59,0.436-0.886,0.654c6.728-1.831,13.098-4.509,19.608-6.964
				c3.34-1.259,8.557-2.296,10.757-5.322c2.018-2.774-4.704-4.164-5.893-4.379c-4.279-0.777-8.397-0.714-12.655,0.105
				c-5.792,1.116-10.477,3.625-15.616,6.337c-5.527,2.917,4.585,6.579,6.395,7.906c13.093,9.604-16.799,11.846-18.585,18.942
				c-0.032,0.125,0.035,0.191,0.167,0.208c4.019,0.531,7.298-1.494,11.182-2.193c0.808-0.146,1.83-0.998,0.387-0.738
				c-3.445,0.62-6.623,2.813-9.474,4.771c-2.467,1.694-8.285,6.517-6.403,9.942c3.141,5.719,19.397,0.162,23.248-0.876
				c21.59-5.82,38.091-20.037,57.001-31.037c-0.604,0.084-1.207,0.168-1.811,0.252c1.588,2.085-7.914,9.668-9.41,11.288
				c-1.623,1.758-1.618,4.923-2.89,6.98c-1.592,2.575-5.343,4.338-7.813,6.045c-3.039,2.1-6.218,4.167-9.659,5.547
				c-1.935,0.776-3.794,1.698-5.742,2.452c2.074-0.803,4.199-2.685,6.112-3.928c2.935-1.907,5.931-3.565,9.076-5.12
				c2.629-1.299,5.289-2.536,7.933-3.803c0.808-0.387,2.399-0.846,2.936-1.657c0.077-0.116-0.08-0.198-0.167-0.208
				c-0.8-0.096-1.65,0.2-2.392,0.466c-1.812,0.648-3.512,1.548-5.362,2.11c-2.521,0.766-0.739-0.785-0.113-1.301
				c2.708-2.231,6.213-3.633,9.4-5.008c3.32-1.432,6.771-2.576,10.223-3.639c1.824-0.561-1.089,1.442-1.671,1.951
				c-0.373,0.326-3.89,2.981-3.41,3.738c0.577,0.909,2.27,0.529,0.238,0.708c-0.612,0.054-1.281,0.142-1.848,0.405
				c-2.518,1.168-3.323,3.485-4.233,5.972c-0.902,2.466-2.805,3.581-5.17,4.439c-4.662-0.095-5.147-0.914-1.456-2.456
				c2.297-1.21,4.942-1.826,7.423-2.533c1.186-0.338,1.027-0.954-0.164-0.614c-3.16,0.901-11.47,2.317-12.414,6.28
				c-0.034,0.067-0.02,0.122,0.043,0.163c2.448,2.054,9.304-0.331,11.41-2.173c2.241-1.96,2.613-4.879,4.04-7.377
				c1.174-2.054,3.541-0.8,5.122-1.911c0.039-0.027,0.313-0.193,0.242-0.297c-1.353-2.012-0.408-2.337,1.342-3.905
				c1.013-0.907,2.872-1.976,3.37-3.313c0.034-0.067,0.02-0.122-0.044-0.163c-1.572-1.044-6.633,1.623-8.259,2.178
				c-4,1.365-8.001,2.991-11.716,5.015c-0.419,0.229-8.555,5.392-4.287,4.868c2.072-0.255,4.065-0.994,5.978-1.806
				c2.1-0.891,2.719-1.636,0.397-0.493c-1.563,0.77-3.144,1.503-4.716,2.251c-6.874,3.271-14.437,6.728-20.046,11.981
				c-0.517,0.484,1.15,0.183,1.28,0.141c5.849-1.879,11.365-4.626,16.497-7.984c3.768-2.466,9.082-5.02,10.66-9.56
				c0.634-1.824,0.957-3.865,2.349-5.278c1.401-1.423,2.876-2.776,4.294-4.182c0.899-0.892,5.915-5.185,4.67-6.819
				c-0.33-0.433-1.459,0.048-1.811,0.252c-5.002,2.91-10.144,5.688-14.913,8.974c-8.27,5.698-15.915,11.437-25.094,15.766
				c-9.44,4.453-21.407,8.953-32.013,8.451c-1.996-0.095-3.979-0.637-4.989-2.476c-1.303-2.371,3.068-5.389,4.314-6.86
				c1.935-2.286,4.678-3.178,7.126-4.687c3.125-1.926,1.176-1.691-0.356-1.173c-2.017,0.813-4.143,1.067-6.378,0.764
				c1.164-1.685,2.776-2.709,4.837-3.074c1.398-0.429,2.32-0.699,3.702-1.33c3.708-1.692,7.963-2.918,11.426-5.053
				c3.198-1.972,2.192-4.554,0.146-7.125c-1.179-1.482-2.682-2.506-4.271-3.497c-1.237-0.772-8.144-3.402-3.227-6.09
				c7.347-4.016,20.641-9.163,28.82-3.434c3.652,2.558-9.091,6.895-10.132,7.288c-5.894,2.222-11.62,4.626-17.713,6.284
				c-0.078,0.021-1.25,0.444-0.886,0.654c2.919,1.677,6.484,2.396,9.72,3.229c3.692,0.952,7.782,2.743,11.467,3.273
				c1.769,0.254,3.42,1.075,4.889,2.049c3.406,2.26-5.771,6.06-5.911,6.115c-1.4,0.541-2.712,0.741-3.771,1.848
				c-0.069,0.048-0.102,0.112-0.099,0.192c0.885,1.272,1.924,1.145,3.428,1.269c4.184,0.344,9.053,1.669,10.984,5.723
				c5.124,10.756-8.934,16.291-16.162,20.424c-8.142,4.654-16.742,8.525-24.562,13.73c-2.525,1.681-14.963,9.693-7.12,13.02
				C232.919,446.559,234.494,445.713,234.299,445.63L234.299,445.63z"/>
		</g>
	</g>
	<g>
		<g>
			<path fill="#B9D657" d="M291.214,344.448c-2.736,0.6-4.282,2.497-6.623,4.005c-3.028,1.951-5.761,3.503-7.14,7.003
				c-1.917,4.869,8.621,3.713,10.703,3.537c4.44-0.375,9.212,0.995,13.635,1.53c5.72,0.692,11.491,1.415,17.251,1.644
				c0.659,0.026,4.174-0.324,2.673-1.731c-1.24-1.162-5.026,1.416-5.979,1.991c-3.945,2.379-7.617,5.271-11.233,8.115
				c-1.044,0.821-5.619,3.481-5.766,4.959c-0.028,0.288,1.022,0.065,1.11,0.039c1.963-0.574,3.777-2.543,5.323-3.758
				c0.438-0.344-1.473-0.145-1.857,0.157c-0.932,0.732-1.865,1.462-2.807,2.182c-0.451,0.345-2.1,1.162-0.828,0.79
				c0.37,0.013,0.74,0.026,1.11,0.039c0.065-0.655,3.063-2.555,3.609-2.999c2.624-2.131,5.305-4.191,8.041-6.176
				c2.274-1.651,4.682-3.524,7.3-4.601c0.374-0.153,1.574,0.213-0.378,0.11c-1.778-0.093-3.554-0.265-5.327-0.428
				c-4.43-0.407-8.852-0.903-13.264-1.463c-2.217-0.282-4.795-1.243-6.945-1.35c-4.264-0.211-9.426,1.462-13.409-0.421
				c-3.648-1.725,2.192-6.821,3.389-7.648c1.602-1.107,5.104-4.354,7.03-4.776C291.629,345.025,292.647,344.134,291.214,344.448
				L291.214,344.448z"/>
		</g>
	</g>
	<g>
		<g>
			<path fill="#B9D657" d="M282.919,345.394c-3.792,0.057-6.941,1.985-10.325,3.455c-3.307,1.435-8.883,2.513-11.123,5.688
				c-2.941,4.169,15.624,3.553,16.504,3.6c0.001-0.322,0.002-0.644,0.004-0.966c-1.864,0.91-3.53,1.934-5.526,2.594
				c-1.287,0.425-1.732,1.118-1.262,2.381c0.26,0.698,2.291,0.09,2.053-0.55c-0.476-1.278,1.48-1.541,2.272-1.796
				c1.196-0.385,2.146-1.28,3.263-1.826c0.605-0.295,0.922-0.917,0.004-0.966c-3.234-0.172-6.468,0.02-9.702-0.152
				c-0.921-0.049-7.612-0.585-5.088-2.819c2.267-2.006,5.678-2.929,8.459-4.006c3.161-1.224,6.153-3.457,9.659-3.51
				C282.851,346.51,284.304,345.373,282.919,345.394L282.919,345.394z"/>
		</g>
	</g>
</g>
</svg>
